<?xml version="1.0" standalone="no"?>
<!DOCTYPE svg PUBLIC "-//W3C//DTD SVG 20010904//EN"
 "http://www.w3.org/TR/2001/REC-SVG-20010904/DTD/svg10.dtd">
<svg version="1.0" xmlns="http://www.w3.org/2000/svg"
 width="499.000000pt" height="499.000000pt" viewBox="0 0 499.000000 499.000000"
 preserveAspectRatio="xMidYMid meet">
<metadata>
Created by potrace 1.14, written by Peter Selinger 2001-2017
</metadata>
<g transform="translate(0.000000,499.000000) scale(0.100000,-0.100000)"
fill="#000000" stroke="none">
<path d="M2327 4894 c-1 -1 -92 -5 -202 -9 -110 -4 -218 -8 -240 -10 -175 -13
-333 -27 -450 -41 -22 -2 -60 -7 -85 -9 -47 -6 -76 -10 -177 -25 -35 -6 -93
-15 -130 -20 -38 -6 -77 -12 -88 -14 -333 -66 -439 -89 -596 -132 l-96 -26 46
-111 c45 -109 46 -110 106 -148 109 -67 104 -57 49 -118 -27 -29 -52 -59 -56
-66 -4 -7 -1 -51 6 -98 11 -65 27 -112 70 -201 31 -63 56 -121 56 -129 0 -7 7
-22 15 -33 8 -10 15 -40 15 -66 0 -35 9 -62 37 -110 21 -35 42 -66 48 -70 48
-32 47 -29 9 -93 -135 -222 -222 -468 -279 -790 -18 -101 -24 -366 -12 -500
26 -296 120 -591 276 -869 161 -285 453 -584 746 -761 246 -149 548 -254 835
-291 30 -4 66 -9 80 -11 34 -5 350 -4 375 1 11 2 47 7 80 10 151 17 411 84
530 136 84 36 257 123 288 144 21 14 40 26 43 26 6 0 125 82 179 124 69 53
107 88 215 196 303 303 505 694 586 1135 19 107 28 514 14 615 -17 114 -20
129 -29 172 -6 24 -12 55 -15 70 -2 15 -7 31 -10 36 -3 5 -7 19 -10 33 -18 79
-30 119 -38 119 -4 0 -8 8 -8 19 0 47 -138 341 -196 418 -13 17 -24 35 -24 38
0 4 -7 13 -15 21 -32 32 -29 62 10 109 41 50 51 81 59 169 7 71 -3 89 -69 137
-25 18 -45 37 -45 44 0 6 15 26 34 44 19 18 37 43 40 55 4 18 17 24 65 34 84
15 174 79 211 148 30 58 40 90 46 149 10 110 17 145 45 198 17 33 28 61 25 64
-5 5 -130 38 -186 49 -14 3 -33 7 -42 10 -9 3 -25 7 -35 9 -10 2 -49 11 -88
19 -74 17 -433 81 -500 91 -23 3 -51 7 -64 10 -13 2 -49 7 -80 10 -31 4 -63 8
-71 10 -8 3 -42 7 -76 10 -33 3 -69 7 -80 9 -10 2 -53 7 -94 11 -41 3 -86 8
-100 10 -14 2 -77 7 -140 11 -63 4 -126 8 -140 9 -105 9 -665 25 -673 19z"/>
</g>
</svg>
